<svg id="Camada_1" data-name="Camada 1" xmlns="http://www.w3.org/2000/svg" viewBox="0 0 14.03 19.16"><defs><style>.cls-1{fill:#fff;}</style></defs><title>drop</title><path class="cls-1" d="M296.55,430.26a7,7,0,0,1-7-7c0-3.62,5.77-11,6.43-11.86a.75.75,0,0,1,1.17,0c.66.83,6.43,8.24,6.43,11.86a7,7,0,0,1-7,7Zm0-17.19c-2,2.59-5.52,7.81-5.52,10.17a5.52,5.52,0,1,0,11,0c0-2.36-3.57-7.58-5.52-10.17Zm0,0" transform="translate(-289.53 -411.1)"/><path class="cls-1" d="M294.78,424.81a.57.57,0,0,1-.18,0c-.21-.07-.29-.24-.19-.38l3.53-5a.51.51,0,0,1,.56-.13c.21.07.29.24.19.38l-3.53,5A.46.46,0,0,1,294.78,424.81Z" transform="translate(-289.53 -411.1)"/><path class="cls-1" d="M295,421.78a1.44,1.44,0,1,1,1.44-1.44A1.45,1.45,0,0,1,295,421.78Zm0-2.18a.73.73,0,1,0,.73.74A.74.74,0,0,0,295,419.6Z" transform="translate(-289.53 -411.1)"/><path class="cls-1" d="M298,425.22a1.44,1.44,0,1,1,1.44-1.44A1.45,1.45,0,0,1,298,425.22Zm0-2.18a.73.73,0,1,0,.73.73A.74.74,0,0,0,298,423Z" transform="translate(-289.53 -411.1)"/></svg>