<svg id="Camada_1" data-name="Camada 1" xmlns="http://www.w3.org/2000/svg" viewBox="0 0 12.94 25.21"><defs><style>.cls-1{fill:#fff;}</style></defs><title>temp</title><path class="cls-1" d="M301.36,422.42v-9.75a3.79,3.79,0,0,0-7.58,0v9.74a6.44,6.44,0,1,0,10.17,5.23,6.38,6.38,0,0,0-2.59-5.23Zm-3.95,9.88a4.63,4.63,0,0,1-4.6-4.65,4.5,4.5,0,0,1,.9-2.67h3.41a.47.47,0,0,0,0-.94h-2.5a4.77,4.77,0,0,1,.51-.36l.43-.26v-1.25h1.56a.43.43,0,1,0,0-.86h-1.56v-.85h1.56a.43.43,0,1,0,0-.85h-1.56v-1h1.56a.43.43,0,1,0,0-.85h-1.56v-.85h1.56a.43.43,0,1,0,0-.86h-1.56v-1h1.56a.43.43,0,1,0,0-.85h-1.56v-1.48a2,2,0,0,1,4,0v10.75l.43.26a4.46,4.46,0,0,1,2.14,4,4.7,4.7,0,0,1-4.73,4.65Zm0,0" transform="translate(-291 -408.89)"/><path class="cls-1" d="M294.53,427a3.38,3.38,0,0,0-.16,1,3.1,3.1,0,1,0,6.2,0,3.34,3.34,0,0,0-.16-1Zm0,0" transform="translate(-291 -408.89)"/></svg>